<svg width="24" height="24" viewBox="0 0 24 24" fill="none" xmlns="http://www.w3.org/2000/svg">
<path d="M14 4.1001L12 6.0001"  stroke-width="2" stroke-linecap="round" stroke-linejoin="round"/>
<path d="M5.09995 8.0002L2.19995 7.2002"  stroke-width="2" stroke-linecap="round" stroke-linejoin="round"/>
<path d="M5.99998 12L4.09998 14"  stroke-width="2" stroke-linecap="round" stroke-linejoin="round"/>
<path d="M7.19995 2.2002L7.99995 5.1002"  stroke-width="2" stroke-linecap="round" stroke-linejoin="round"/>
<path d="M9.03703 9.69015C8.99825 9.5988 8.98765 9.49795 9.00659 9.40054C9.02552 9.30313 9.07313 9.21359 9.1433 9.14342C9.21347 9.07325 9.303 9.02564 9.40042 9.00671C9.49783 8.98777 9.59868 8.99837 9.69003 9.03715L20.69 13.5372C20.7879 13.5773 20.8706 13.6475 20.926 13.7376C20.9815 13.8277 21.007 13.9331 20.9987 14.0386C20.9905 14.1441 20.949 14.2443 20.8803 14.3247C20.8115 14.4051 20.719 14.4616 20.616 14.4862L16.267 15.5272C16.0875 15.57 15.9233 15.6618 15.7927 15.7922C15.6621 15.9226 15.5702 16.0867 15.527 16.2662L14.487 20.6161C14.4628 20.7194 14.4063 20.8123 14.3258 20.8814C14.2453 20.9505 14.1449 20.9922 14.0391 21.0004C13.9333 21.0087 13.8276 20.983 13.7374 20.9273C13.6471 20.8715 13.577 20.7884 13.537 20.6902L9.03703 9.69015Z"  stroke-width="2" stroke-linecap="round" stroke-linejoin="round"/>
</svg>
